<svg xmlns="http://www.w3.org/2000/svg" width="1200" height="780" viewBox="0 0 1200 780" role="img" aria-labelledby="title desc">
<title>Componente imaginaria</title>
<desc>Original vector illustration for LaTeX documents about wPLI functional connectivity in EEG.</desc>
<defs>
  <marker id="arrow" markerWidth="12" markerHeight="12" refX="10" refY="6" orient="auto">
    <path d="M2,2 L10,6 L2,10 Z" fill="#5f6b7a"/>
  </marker>
  <marker id="arrowBlue" markerWidth="12" markerHeight="12" refX="10" refY="6" orient="auto">
    <path d="M2,2 L10,6 L2,10 Z" fill="#1f5cc4"/>
  </marker>
  <marker id="arrowRed" markerWidth="12" markerHeight="12" refX="10" refY="6" orient="auto">
    <path d="M2,2 L10,6 L2,10 Z" fill="#cc1f1a"/>
  </marker>
  <filter id="shadow" x="-20%" y="-20%" width="140%" height="140%">
    <feDropShadow dx="0" dy="5" stdDeviation="8" flood-color="#000" flood-opacity="0.12"/>
  </filter>
  <linearGradient id="bg" x1="0" y1="0" x2="1" y2="1">
    <stop offset="0%" stop-color="#ffffff"/>
    <stop offset="100%" stop-color="#eef5ff"/>
  </linearGradient>
</defs>
<rect width="100%" height="100%" fill="url(#bg)"/>
<rect x="55" y="55" width="1090" height="650" rx="24" fill="white" stroke="#cc1f1a" stroke-width="3" filter="url(#shadow)"/><rect x="55" y="55" width="1090" height="64" rx="24" fill="#cc1f1a"/><text x="600.0" y="98" font-family="Arial, Helvetica, sans-serif" font-size="25" font-weight="700" fill="white" text-anchor="middle">Componente imaginaria: signo y consistencia del desfase</text><line x1="140" y1="360" x2="560" y2="360" stroke="#101828" stroke-width="4" marker-end="url(#arrow)"/><line x1="330" y1="550" x2="330" y2="130" stroke="#101828" stroke-width="4" marker-end="url(#arrow)"/><text x="575" y="370" font-family="Arial, Helvetica, sans-serif" font-size="24" font-weight="700" fill="#101828" text-anchor="start">Real</text><text x="338" y="120" font-family="Arial, Helvetica, sans-serif" font-size="24" font-weight="700" fill="#101828" text-anchor="start">Im</text><circle cx="425.0" cy="307.7" r="7" fill="#1f5cc4" opacity="0.72"/><circle cx="430.0" cy="316.2" r="7" fill="#1f5cc4" opacity="0.72"/><circle cx="453.2" cy="459.4" r="7" fill="#cc1f1a" opacity="0.72"/><circle cx="330.5" cy="267.6" r="7" fill="#1f5cc4" opacity="0.72"/><circle cx="403.3" cy="319.0" r="7" fill="#1f5cc4" opacity="0.72"/><circle cx="464.3" cy="454.0" r="7" fill="#cc1f1a" opacity="0.72"/><circle cx="278.2" cy="441.8" r="7" fill="#cc1f1a" opacity="0.72"/><circle cx="252.5" cy="208.3" r="7" fill="#1f5cc4" opacity="0.72"/><circle cx="229.9" cy="453.2" r="7" fill="#cc1f1a" opacity="0.72"/><circle cx="336.4" cy="281.3" r="7" fill="#1f5cc4" opacity="0.72"/><circle cx="491.6" cy="278.1" r="7" fill="#1f5cc4" opacity="0.72"/><circle cx="356.9" cy="451.7" r="7" fill="#cc1f1a" opacity="0.72"/><circle cx="388.8" cy="523.9" r="7" fill="#cc1f1a" opacity="0.72"/><circle cx="351.0" cy="468.9" r="7" fill="#cc1f1a" opacity="0.72"/><circle cx="350.1" cy="285.9" r="7" fill="#1f5cc4" opacity="0.72"/><circle cx="292.2" cy="312.3" r="7" fill="#1f5cc4" opacity="0.72"/><circle cx="310.3" cy="269.3" r="7" fill="#1f5cc4" opacity="0.72"/><circle cx="346.8" cy="260.1" r="7" fill="#1f5cc4" opacity="0.72"/><circle cx="271.2" cy="453.8" r="7" fill="#cc1f1a" opacity="0.72"/><circle cx="309.0" cy="270.1" r="7" fill="#1f5cc4" opacity="0.72"/><circle cx="282.1" cy="274.2" r="7" fill="#1f5cc4" opacity="0.72"/><circle cx="276.5" cy="317.1" r="7" fill="#1f5cc4" opacity="0.72"/><circle cx="439.1" cy="245.3" r="7" fill="#1f5cc4" opacity="0.72"/><circle cx="397.2" cy="286.3" r="7" fill="#1f5cc4" opacity="0.72"/><circle cx="341.8" cy="300.4" r="7" fill="#1f5cc4" opacity="0.72"/><circle cx="188.9" cy="242.0" r="7" fill="#1f5cc4" opacity="0.72"/><circle cx="280.7" cy="330.5" r="7" fill="#1f5cc4" opacity="0.72"/><circle cx="191.8" cy="280.0" r="7" fill="#1f5cc4" opacity="0.72"/><circle cx="214.0" cy="283.9" r="7" fill="#1f5cc4" opacity="0.72"/><circle cx="304.2" cy="436.6" r="7" fill="#cc1f1a" opacity="0.72"/><circle cx="418.9" cy="301.2" r="7" fill="#1f5cc4" opacity="0.72"/><circle cx="316.9" cy="414.7" r="7" fill="#cc1f1a" opacity="0.72"/><circle cx="456.5" cy="260.7" r="7" fill="#1f5cc4" opacity="0.72"/><circle cx="369.0" cy="304.2" r="7" fill="#1f5cc4" opacity="0.72"/><circle cx="329.0" cy="443.1" r="7" fill="#cc1f1a" opacity="0.72"/><circle cx="402.1" cy="330.8" r="7" fill="#1f5cc4" opacity="0.72"/><circle cx="379.4" cy="325.0" r="7" fill="#1f5cc4" opacity="0.72"/><circle cx="453.7" cy="216.2" r="7" fill="#1f5cc4" opacity="0.72"/><circle cx="333.9" cy="200.6" r="7" fill="#1f5cc4" opacity="0.72"/><circle cx="223.6" cy="305.7" r="7" fill="#1f5cc4" opacity="0.72"/><circle cx="348.6" cy="303.0" r="7" fill="#1f5cc4" opacity="0.72"/><circle cx="444.3" cy="227.4" r="7" fill="#1f5cc4" opacity="0.72"/><circle cx="339.9" cy="418.4" r="7" fill="#cc1f1a" opacity="0.72"/><circle cx="385.2" cy="297.9" r="7" fill="#1f5cc4" opacity="0.72"/><circle cx="276.3" cy="308.9" r="7" fill="#1f5cc4" opacity="0.72"/><circle cx="223.0" cy="283.9" r="7" fill="#1f5cc4" opacity="0.72"/><circle cx="319.0" cy="536.3" r="7" fill="#cc1f1a" opacity="0.72"/><circle cx="240.0" cy="233.1" r="7" fill="#1f5cc4" opacity="0.72"/><circle cx="404.1" cy="321.6" r="7" fill="#1f5cc4" opacity="0.72"/><circle cx="492.6" cy="436.7" r="7" fill="#cc1f1a" opacity="0.72"/><circle cx="283.6" cy="203.8" r="7" fill="#1f5cc4" opacity="0.72"/><circle cx="251.0" cy="261.5" r="7" fill="#1f5cc4" opacity="0.72"/><circle cx="297.9" cy="274.6" r="7" fill="#1f5cc4" opacity="0.72"/><circle cx="392.0" cy="379.5" r="7" fill="#cc1f1a" opacity="0.72"/><circle cx="469.1" cy="401.8" r="7" fill="#cc1f1a" opacity="0.72"/><circle cx="274.3" cy="314.1" r="7" fill="#1f5cc4" opacity="0.72"/><circle cx="364.2" cy="413.1" r="7" fill="#cc1f1a" opacity="0.72"/><circle cx="299.2" cy="231.8" r="7" fill="#1f5cc4" opacity="0.72"/><circle cx="261.2" cy="311.0" r="7" fill="#1f5cc4" opacity="0.72"/><circle cx="284.2" cy="326.5" r="7" fill="#1f5cc4" opacity="0.72"/><circle cx="217.9" cy="480.1" r="7" fill="#cc1f1a" opacity="0.72"/><circle cx="443.9" cy="421.2" r="7" fill="#cc1f1a" opacity="0.72"/><circle cx="254.5" cy="484.5" r="7" fill="#cc1f1a" opacity="0.72"/><circle cx="208.8" cy="256.5" r="7" fill="#1f5cc4" opacity="0.72"/><circle cx="331.8" cy="301.5" r="7" fill="#1f5cc4" opacity="0.72"/><circle cx="313.6" cy="240.1" r="7" fill="#1f5cc4" opacity="0.72"/><circle cx="360.8" cy="427.0" r="7" fill="#cc1f1a" opacity="0.72"/><circle cx="263.3" cy="253.6" r="7" fill="#1f5cc4" opacity="0.72"/><circle cx="218.6" cy="235.9" r="7" fill="#1f5cc4" opacity="0.72"/><circle cx="328.9" cy="253.5" r="7" fill="#1f5cc4" opacity="0.72"/><circle cx="305.9" cy="443.1" r="7" fill="#cc1f1a" opacity="0.72"/><circle cx="271.3" cy="326.0" r="7" fill="#1f5cc4" opacity="0.72"/><circle cx="295.2" cy="189.0" r="7" fill="#1f5cc4" opacity="0.72"/><circle cx="373.5" cy="194.8" r="7" fill="#1f5cc4" opacity="0.72"/><circle cx="197.2" cy="472.4" r="7" fill="#cc1f1a" opacity="0.72"/><circle cx="422.0" cy="219.6" r="7" fill="#1f5cc4" opacity="0.72"/><circle cx="284.0" cy="297.5" r="7" fill="#1f5cc4" opacity="0.72"/><circle cx="287.2" cy="421.8" r="7" fill="#cc1f1a" opacity="0.72"/><circle cx="390.5" cy="247.0" r="7" fill="#1f5cc4" opacity="0.72"/><circle cx="364.9" cy="403.5" r="7" fill="#cc1f1a" opacity="0.72"/><circle cx="328.3" cy="239.3" r="7" fill="#1f5cc4" opacity="0.72"/><circle cx="338.7" cy="295.4" r="7" fill="#1f5cc4" opacity="0.72"/><circle cx="259.2" cy="284.9" r="7" fill="#1f5cc4" opacity="0.72"/><circle cx="465.8" cy="392.4" r="7" fill="#cc1f1a" opacity="0.72"/><circle cx="313.3" cy="264.2" r="7" fill="#1f5cc4" opacity="0.72"/><circle cx="346.3" cy="537.3" r="7" fill="#cc1f1a" opacity="0.72"/><circle cx="213.8" cy="248.2" r="7" fill="#1f5cc4" opacity="0.72"/><circle cx="347.4" cy="288.1" r="7" fill="#1f5cc4" opacity="0.72"/><circle cx="307.0" cy="502.5" r="7" fill="#cc1f1a" opacity="0.72"/><circle cx="396.9" cy="327.5" r="7" fill="#1f5cc4" opacity="0.72"/><circle cx="229.8" cy="505.6" r="7" fill="#cc1f1a" opacity="0.72"/><circle cx="320.8" cy="258.1" r="7" fill="#1f5cc4" opacity="0.72"/><circle cx="427.0" cy="309.6" r="7" fill="#1f5cc4" opacity="0.72"/><circle cx="249.3" cy="478.5" r="7" fill="#cc1f1a" opacity="0.72"/><circle cx="362.1" cy="311.5" r="7" fill="#1f5cc4" opacity="0.72"/><rect x="650" y="180" width="410" height="360" rx="22" fill="white" stroke="#d8e2ef" stroke-width="3"/><line x1="690" y1="360" x2="1025" y2="360" stroke="#5f6b7a" stroke-dasharray="8,8" stroke-width="3"/><path d="M 690.0,344.0 L 691.5,368.5 L 693.1,370.6 L 694.6,374.4 L 696.1,381.3 L 697.6,371.2 L 699.2,383.3 L 700.7,358.9 L 702.2,359.5 L 703.8,382.1 L 705.3,364.6 L 706.8,379.6 L 708.4,366.7 L 709.9,364.5 L 711.4,370.5 L 712.9,384.6 L 714.5,383.9 L 716.0,368.4 L 717.5,351.1 L 719.1,360.6 L 720.6,342.4 L 722.1,339.6 L 723.7,342.6 L 725.2,347.4 L 726.7,357.0 L 728.2,350.4 L 729.8,323.7 L 731.3,343.5 L 732.8,318.6 L 734.4,303.3 L 735.9,306.6 L 737.4,314.7 L 738.9,297.0 L 740.5,298.8 L 742.0,288.9 L 743.5,303.0 L 745.1,301.3 L 746.6,302.2 L 748.1,290.1 L 749.7,292.2 L 751.2,280.1 L 752.7,264.7 L 754.2,267.2 L 755.8,260.2 L 757.3,283.5 L 758.8,277.4 L 760.4,253.5 L 761.9,260.4 L 763.4,251.0 L 765.0,267.9 L 766.5,271.1 L 768.0,274.7 L 769.5,270.3 L 771.1,276.6 L 772.6,281.0 L 774.1,292.4 L 775.7,267.3 L 777.2,282.2 L 778.7,282.7 L 780.3,288.8 L 781.8,309.1 L 783.3,311.0 L 784.8,298.6 L 786.4,296.9 L 787.9,309.2 L 789.4,335.8 L 791.0,316.4 L 792.5,316.1 L 794.0,328.2 L 795.5,340.4 L 797.1,348.4 L 798.6,354.4 L 800.1,367.8 L 801.7,359.0 L 803.2,367.3 L 804.7,350.8 L 806.3,355.0 L 807.8,364.0 L 809.3,369.2 L 810.8,367.5 L 812.4,388.1 L 813.9,379.7 L 815.4,379.1 L 817.0,373.2 L 818.5,374.2 L 820.0,382.9 L 821.6,383.7 L 823.1,356.4 L 824.6,378.6 L 826.1,360.0 L 827.7,353.9 L 829.2,351.7 L 830.7,346.3 L 832.3,352.6 L 833.8,360.9 L 835.3,360.3 L 836.8,337.5 L 838.4,346.9 L 839.9,350.7 L 841.4,331.2 L 843.0,340.1 L 844.5,312.4 L 846.0,316.8 L 847.6,310.4 L 849.1,295.6 L 850.6,284.1 L 852.1,311.7 L 853.7,280.6 L 855.2,301.8 L 856.7,289.0 L 858.3,280.0 L 859.8,278.1 L 861.3,289.2 L 862.9,268.0 L 864.4,263.5 L 865.9,273.6 L 867.4,279.9 L 869.0,255.6 L 870.5,250.1 L 872.0,259.4 L 873.6,253.9 L 875.1,257.1 L 876.6,270.5 L 878.2,255.2 L 879.7,265.2 L 881.2,268.7 L 882.7,261.7 L 884.3,273.1 L 885.8,287.0 L 887.3,272.9 L 888.9,303.0 L 890.4,275.6 L 891.9,308.1 L 893.4,296.7 L 895.0,320.7 L 896.5,308.6 L 898.0,329.0 L 899.6,307.8 L 901.1,329.9 L 902.6,330.2 L 904.2,317.4 L 905.7,334.2 L 907.2,358.2 L 908.7,336.0 L 910.3,358.8 L 911.8,341.5 L 913.3,357.2 L 914.9,364.5 L 916.4,350.9 L 917.9,381.9 L 919.5,375.7 L 921.0,367.6 L 922.5,381.4 L 924.0,386.9 L 925.6,381.9 L 927.1,379.6 L 928.6,387.4 L 930.2,360.1 L 931.7,375.5 L 933.2,374.7 L 934.7,385.3 L 936.3,354.1 L 937.8,357.0 L 939.3,376.4 L 940.9,349.2 L 942.4,339.8 L 943.9,363.5 L 945.5,337.0 L 947.0,343.4 L 948.5,336.4 L 950.0,351.2 L 951.6,324.4 L 953.1,308.2 L 954.6,309.7 L 956.2,307.3 L 957.7,326.3 L 959.2,302.9 L 960.8,286.5 L 962.3,306.0 L 963.8,282.2 L 965.3,286.0 L 966.9,299.1 L 968.4,288.8 L 969.9,263.0 L 971.5,275.8 L 973.0,268.3 L 974.5,285.3 L 976.1,261.2 L 977.6,272.2 L 979.1,250.0 L 980.6,263.5 L 982.2,280.9 L 983.7,254.3 L 985.2,256.1 L 986.8,252.4 L 988.3,264.7 L 989.8,287.9 L 991.3,255.9 L 992.9,285.4 L 994.4,278.1 L 995.9,278.2 L 997.5,294.7 L 999.0,275.1 L 1000.5,292.7 L 1002.1,286.6 L 1003.6,293.4 L 1005.1,302.9 L 1006.6,324.0 L 1008.2,321.5 L 1009.7,333.5 L 1011.2,329.4 L 1012.8,313.2 L 1014.3,348.1 L 1015.8,355.8 L 1017.4,332.3 L 1018.9,362.3 L 1020.4,334.9 L 1021.9,366.6 L 1023.5,350.8 L 1025.0,366.1" fill="none" stroke="#6a2dbd" stroke-width="4"/><text x="855" y="585" font-family="Arial, Helvetica, sans-serif" font-size="29" font-weight="700" fill="#0b1d57" text-anchor="middle">Más puntos con el mismo signo -> wPLI mayor</text><text x="330" y="610" font-family="Arial, Helvetica, sans-serif" font-size="27" font-weight="700" fill="#101828" text-anchor="middle">Plano complejo del espectro cruzado</text>
</svg>