<svg xmlns="http://www.w3.org/2000/svg" width="1200" height="780" viewBox="0 0 1200 780" role="img" aria-labelledby="title desc">
<title>Matriz de conectividad</title>
<desc>Original vector illustration for LaTeX documents about wPLI functional connectivity in EEG.</desc>
<defs>
  <marker id="arrow" markerWidth="12" markerHeight="12" refX="10" refY="6" orient="auto">
    <path d="M2,2 L10,6 L2,10 Z" fill="#5f6b7a"/>
  </marker>
  <marker id="arrowBlue" markerWidth="12" markerHeight="12" refX="10" refY="6" orient="auto">
    <path d="M2,2 L10,6 L2,10 Z" fill="#1f5cc4"/>
  </marker>
  <marker id="arrowRed" markerWidth="12" markerHeight="12" refX="10" refY="6" orient="auto">
    <path d="M2,2 L10,6 L2,10 Z" fill="#cc1f1a"/>
  </marker>
  <filter id="shadow" x="-20%" y="-20%" width="140%" height="140%">
    <feDropShadow dx="0" dy="5" stdDeviation="8" flood-color="#000" flood-opacity="0.12"/>
  </filter>
  <linearGradient id="bg" x1="0" y1="0" x2="1" y2="1">
    <stop offset="0%" stop-color="#ffffff"/>
    <stop offset="100%" stop-color="#eef5ff"/>
  </linearGradient>
</defs>
<rect width="100%" height="100%" fill="url(#bg)"/>
<rect x="55" y="55" width="1090" height="650" rx="24" fill="white" stroke="#1b7a35" stroke-width="3" filter="url(#shadow)"/><rect x="55" y="55" width="1090" height="64" rx="24" fill="#1b7a35"/><text x="600.0" y="98" font-family="Arial, Helvetica, sans-serif" font-size="25" font-weight="700" fill="white" text-anchor="middle">Matriz de conectividad wPLI</text><rect x="200" y="145" width="30" height="30" fill="rgb(210,35,30)" stroke="white" stroke-width="0.7"/><rect x="230" y="145" width="30" height="30" fill="rgb(249,206,69)" stroke="white" stroke-width="0.7"/><rect x="260" y="145" width="30" height="30" fill="rgb(192,180,100)" stroke="white" stroke-width="0.7"/><rect x="290" y="145" width="30" height="30" fill="rgb(245,191,65)" stroke="white" stroke-width="0.7"/><rect x="320" y="145" width="30" height="30" fill="rgb(142,155,127)" stroke="white" stroke-width="0.7"/><rect x="350" y="145" width="30" height="30" fill="rgb(226,197,82)" stroke="white" stroke-width="0.7"/><rect x="380" y="145" width="30" height="30" fill="rgb(184,176,104)" stroke="white" stroke-width="0.7"/><rect x="410" y="145" width="30" height="30" fill="rgb(117,142,140)" stroke="white" stroke-width="0.7"/><rect x="440" y="145" width="30" height="30" fill="rgb(204,186,94)" stroke="white" stroke-width="0.7"/><rect x="470" y="145" width="30" height="30" fill="rgb(106,136,146)" stroke="white" stroke-width="0.7"/><rect x="500" y="145" width="30" height="30" fill="rgb(185,176,104)" stroke="white" stroke-width="0.7"/><rect x="530" y="145" width="30" height="30" fill="rgb(110,138,144)" stroke="white" stroke-width="0.7"/><rect x="560" y="145" width="30" height="30" fill="rgb(113,140,142)" stroke="white" stroke-width="0.7"/><rect x="590" y="145" width="30" height="30" fill="rgb(180,174,107)" stroke="white" stroke-width="0.7"/><rect x="620" y="145" width="30" height="30" fill="rgb(248,201,68)" stroke="white" stroke-width="0.7"/><rect x="200" y="175" width="30" height="30" fill="rgb(214,191,89)" stroke="white" stroke-width="0.7"/><rect x="230" y="175" width="30" height="30" fill="rgb(210,35,30)" stroke="white" stroke-width="0.7"/><rect x="260" y="175" width="30" height="30" fill="rgb(234,202,78)" stroke="white" stroke-width="0.7"/><rect x="290" y="175" width="30" height="30" fill="rgb(243,179,63)" stroke="white" stroke-width="0.7"/><rect x="320" y="175" width="30" height="30" fill="rgb(235,144,55)" stroke="white" stroke-width="0.7"/><rect x="350" y="175" width="30" height="30" fill="rgb(244,207,72)" stroke="white" stroke-width="0.7"/><rect x="380" y="175" width="30" height="30" fill="rgb(198,183,97)" stroke="white" stroke-width="0.7"/><rect x="410" y="175" width="30" height="30" fill="rgb(239,164,59)" stroke="white" stroke-width="0.7"/><rect x="440" y="175" width="30" height="30" fill="rgb(115,141,141)" stroke="white" stroke-width="0.7"/><rect x="470" y="175" width="30" height="30" fill="rgb(245,189,65)" stroke="white" stroke-width="0.7"/><rect x="500" y="175" width="30" height="30" fill="rgb(157,162,119)" stroke="white" stroke-width="0.7"/><rect x="530" y="175" width="30" height="30" fill="rgb(126,146,135)" stroke="white" stroke-width="0.7"/><rect x="560" y="175" width="30" height="30" fill="rgb(119,143,139)" stroke="white" stroke-width="0.7"/><rect x="590" y="175" width="30" height="30" fill="rgb(157,162,119)" stroke="white" stroke-width="0.7"/><rect x="620" y="175" width="30" height="30" fill="rgb(248,202,68)" stroke="white" stroke-width="0.7"/><rect x="200" y="205" width="30" height="30" fill="rgb(198,183,97)" stroke="white" stroke-width="0.7"/><rect x="230" y="205" width="30" height="30" fill="rgb(239,165,59)" stroke="white" stroke-width="0.7"/><rect x="260" y="205" width="30" height="30" fill="rgb(210,35,30)" stroke="white" stroke-width="0.7"/><rect x="290" y="205" width="30" height="30" fill="rgb(237,156,57)" stroke="white" stroke-width="0.7"/><rect x="320" y="205" width="30" height="30" fill="rgb(237,203,76)" stroke="white" stroke-width="0.7"/><rect x="350" y="205" width="30" height="30" fill="rgb(249,207,69)" stroke="white" stroke-width="0.7"/><rect x="380" y="205" width="30" height="30" fill="rgb(140,154,128)" stroke="white" stroke-width="0.7"/><rect x="410" y="205" width="30" height="30" fill="rgb(130,148,133)" stroke="white" stroke-width="0.7"/><rect x="440" y="205" width="30" height="30" fill="rgb(152,160,122)" stroke="white" stroke-width="0.7"/><rect x="470" y="205" width="30" height="30" fill="rgb(243,206,73)" stroke="white" stroke-width="0.7"/><rect x="500" y="205" width="30" height="30" fill="rgb(188,178,102)" stroke="white" stroke-width="0.7"/><rect x="530" y="205" width="30" height="30" fill="rgb(162,165,116)" stroke="white" stroke-width="0.7"/><rect x="560" y="205" width="30" height="30" fill="rgb(215,192,88)" stroke="white" stroke-width="0.7"/><rect x="590" y="205" width="30" height="30" fill="rgb(187,178,103)" stroke="white" stroke-width="0.7"/><rect x="620" y="205" width="30" height="30" fill="rgb(155,161,120)" stroke="white" stroke-width="0.7"/><rect x="200" y="235" width="30" height="30" fill="rgb(240,168,60)" stroke="white" stroke-width="0.7"/><rect x="230" y="235" width="30" height="30" fill="rgb(240,168,60)" stroke="white" stroke-width="0.7"/><rect x="260" y="235" width="30" height="30" fill="rgb(238,204,76)" stroke="white" stroke-width="0.7"/><rect x="290" y="235" width="30" height="30" fill="rgb(210,35,30)" stroke="white" stroke-width="0.7"/><rect x="320" y="235" width="30" height="30" fill="rgb(240,166,60)" stroke="white" stroke-width="0.7"/><rect x="350" y="235" width="30" height="30" fill="rgb(246,195,66)" stroke="white" stroke-width="0.7"/><rect x="380" y="235" width="30" height="30" fill="rgb(237,156,57)" stroke="white" stroke-width="0.7"/><rect x="410" y="235" width="30" height="30" fill="rgb(245,189,65)" stroke="white" stroke-width="0.7"/><rect x="440" y="235" width="30" height="30" fill="rgb(176,172,109)" stroke="white" stroke-width="0.7"/><rect x="470" y="235" width="30" height="30" fill="rgb(239,163,59)" stroke="white" stroke-width="0.7"/><rect x="500" y="235" width="30" height="30" fill="rgb(214,52,34)" stroke="white" stroke-width="0.7"/><rect x="530" y="235" width="30" height="30" fill="rgb(186,177,103)" stroke="white" stroke-width="0.7"/><rect x="560" y="235" width="30" height="30" fill="rgb(249,208,69)" stroke="white" stroke-width="0.7"/><rect x="590" y="235" width="30" height="30" fill="rgb(128,147,135)" stroke="white" stroke-width="0.7"/><rect x="620" y="235" width="30" height="30" fill="rgb(194,181,99)" stroke="white" stroke-width="0.7"/><rect x="200" y="265" width="30" height="30" fill="rgb(136,151,130)" stroke="white" stroke-width="0.7"/><rect x="230" y="265" width="30" height="30" fill="rgb(245,188,65)" stroke="white" stroke-width="0.7"/><rect x="260" y="265" width="30" height="30" fill="rgb(238,158,58)" stroke="white" stroke-width="0.7"/><rect x="290" y="265" width="30" height="30" fill="rgb(240,167,60)" stroke="white" stroke-width="0.7"/><rect x="320" y="265" width="30" height="30" fill="rgb(210,35,30)" stroke="white" stroke-width="0.7"/><rect x="350" y="265" width="30" height="30" fill="rgb(229,119,49)" stroke="white" stroke-width="0.7"/><rect x="380" y="265" width="30" height="30" fill="rgb(225,197,83)" stroke="white" stroke-width="0.7"/><rect x="410" y="265" width="30" height="30" fill="rgb(244,184,64)" stroke="white" stroke-width="0.7"/><rect x="440" y="265" width="30" height="30" fill="rgb(248,209,70)" stroke="white" stroke-width="0.7"/><rect x="470" y="265" width="30" height="30" fill="rgb(235,202,77)" stroke="white" stroke-width="0.7"/><rect x="500" y="265" width="30" height="30" fill="rgb(203,186,94)" stroke="white" stroke-width="0.7"/><rect x="530" y="265" width="30" height="30" fill="rgb(245,190,65)" stroke="white" stroke-width="0.7"/><rect x="560" y="265" width="30" height="30" fill="rgb(242,176,62)" stroke="white" stroke-width="0.7"/><rect x="590" y="265" width="30" height="30" fill="rgb(195,182,99)" stroke="white" stroke-width="0.7"/><rect x="620" y="265" width="30" height="30" fill="rgb(231,200,79)" stroke="white" stroke-width="0.7"/><rect x="200" y="295" width="30" height="30" fill="rgb(130,148,133)" stroke="white" stroke-width="0.7"/><rect x="230" y="295" width="30" height="30" fill="rgb(246,194,66)" stroke="white" stroke-width="0.7"/><rect x="260" y="295" width="30" height="30" fill="rgb(245,191,65)" stroke="white" stroke-width="0.7"/><rect x="290" y="295" width="30" height="30" fill="rgb(229,122,49)" stroke="white" stroke-width="0.7"/><rect x="320" y="295" width="30" height="30" fill="rgb(231,127,51)" stroke="white" stroke-width="0.7"/><rect x="350" y="295" width="30" height="30" fill="rgb(210,35,30)" stroke="white" stroke-width="0.7"/><rect x="380" y="295" width="30" height="30" fill="rgb(246,208,71)" stroke="white" stroke-width="0.7"/><rect x="410" y="295" width="30" height="30" fill="rgb(239,204,75)" stroke="white" stroke-width="0.7"/><rect x="440" y="295" width="30" height="30" fill="rgb(245,188,65)" stroke="white" stroke-width="0.7"/><rect x="470" y="295" width="30" height="30" fill="rgb(132,150,132)" stroke="white" stroke-width="0.7"/><rect x="500" y="295" width="30" height="30" fill="rgb(211,190,90)" stroke="white" stroke-width="0.7"/><rect x="530" y="295" width="30" height="30" fill="rgb(144,156,126)" stroke="white" stroke-width="0.7"/><rect x="560" y="295" width="30" height="30" fill="rgb(129,148,134)" stroke="white" stroke-width="0.7"/><rect x="590" y="295" width="30" height="30" fill="rgb(113,140,142)" stroke="white" stroke-width="0.7"/><rect x="620" y="295" width="30" height="30" fill="rgb(249,206,69)" stroke="white" stroke-width="0.7"/><rect x="200" y="325" width="30" height="30" fill="rgb(136,152,130)" stroke="white" stroke-width="0.7"/><rect x="230" y="325" width="30" height="30" fill="rgb(168,168,113)" stroke="white" stroke-width="0.7"/><rect x="260" y="325" width="30" height="30" fill="rgb(207,188,92)" stroke="white" stroke-width="0.7"/><rect x="290" y="325" width="30" height="30" fill="rgb(237,156,57)" stroke="white" stroke-width="0.7"/><rect x="320" y="325" width="30" height="30" fill="rgb(178,173,108)" stroke="white" stroke-width="0.7"/><rect x="350" y="325" width="30" height="30" fill="rgb(244,186,64)" stroke="white" stroke-width="0.7"/><rect x="380" y="325" width="30" height="30" fill="rgb(210,35,30)" stroke="white" stroke-width="0.7"/><rect x="410" y="325" width="30" height="30" fill="rgb(241,170,61)" stroke="white" stroke-width="0.7"/><rect x="440" y="325" width="30" height="30" fill="rgb(233,139,53)" stroke="white" stroke-width="0.7"/><rect x="470" y="325" width="30" height="30" fill="rgb(239,164,59)" stroke="white" stroke-width="0.7"/><rect x="500" y="325" width="30" height="30" fill="rgb(240,168,60)" stroke="white" stroke-width="0.7"/><rect x="530" y="325" width="30" height="30" fill="rgb(174,171,110)" stroke="white" stroke-width="0.7"/><rect x="560" y="325" width="30" height="30" fill="rgb(194,181,99)" stroke="white" stroke-width="0.7"/><rect x="590" y="325" width="30" height="30" fill="rgb(178,173,108)" stroke="white" stroke-width="0.7"/><rect x="620" y="325" width="30" height="30" fill="rgb(244,185,64)" stroke="white" stroke-width="0.7"/><rect x="200" y="355" width="30" height="30" fill="rgb(241,171,61)" stroke="white" stroke-width="0.7"/><rect x="230" y="355" width="30" height="30" fill="rgb(141,154,127)" stroke="white" stroke-width="0.7"/><rect x="260" y="355" width="30" height="30" fill="rgb(153,160,121)" stroke="white" stroke-width="0.7"/><rect x="290" y="355" width="30" height="30" fill="rgb(175,171,109)" stroke="white" stroke-width="0.7"/><rect x="320" y="355" width="30" height="30" fill="rgb(189,179,102)" stroke="white" stroke-width="0.7"/><rect x="350" y="355" width="30" height="30" fill="rgb(248,202,68)" stroke="white" stroke-width="0.7"/><rect x="380" y="355" width="30" height="30" fill="rgb(239,164,59)" stroke="white" stroke-width="0.7"/><rect x="410" y="355" width="30" height="30" fill="rgb(210,35,30)" stroke="white" stroke-width="0.7"/><rect x="440" y="355" width="30" height="30" fill="rgb(214,52,34)" stroke="white" stroke-width="0.7"/><rect x="470" y="355" width="30" height="30" fill="rgb(162,165,116)" stroke="white" stroke-width="0.7"/><rect x="500" y="355" width="30" height="30" fill="rgb(227,198,82)" stroke="white" stroke-width="0.7"/><rect x="530" y="355" width="30" height="30" fill="rgb(202,185,95)" stroke="white" stroke-width="0.7"/><rect x="560" y="355" width="30" height="30" fill="rgb(232,201,79)" stroke="white" stroke-width="0.7"/><rect x="590" y="355" width="30" height="30" fill="rgb(240,168,60)" stroke="white" stroke-width="0.7"/><rect x="620" y="355" width="30" height="30" fill="rgb(245,207,72)" stroke="white" stroke-width="0.7"/><rect x="200" y="385" width="30" height="30" fill="rgb(206,187,93)" stroke="white" stroke-width="0.7"/><rect x="230" y="385" width="30" height="30" fill="rgb(230,200,80)" stroke="white" stroke-width="0.7"/><rect x="260" y="385" width="30" height="30" fill="rgb(247,208,71)" stroke="white" stroke-width="0.7"/><rect x="290" y="385" width="30" height="30" fill="rgb(128,148,134)" stroke="white" stroke-width="0.7"/><rect x="320" y="385" width="30" height="30" fill="rgb(239,163,59)" stroke="white" stroke-width="0.7"/><rect x="350" y="385" width="30" height="30" fill="rgb(241,171,61)" stroke="white" stroke-width="0.7"/><rect x="380" y="385" width="30" height="30" fill="rgb(234,140,54)" stroke="white" stroke-width="0.7"/><rect x="410" y="385" width="30" height="30" fill="rgb(214,52,34)" stroke="white" stroke-width="0.7"/><rect x="440" y="385" width="30" height="30" fill="rgb(210,35,30)" stroke="white" stroke-width="0.7"/><rect x="470" y="385" width="30" height="30" fill="rgb(246,195,66)" stroke="white" stroke-width="0.7"/><rect x="500" y="385" width="30" height="30" fill="rgb(242,206,73)" stroke="white" stroke-width="0.7"/><rect x="530" y="385" width="30" height="30" fill="rgb(163,165,116)" stroke="white" stroke-width="0.7"/><rect x="560" y="385" width="30" height="30" fill="rgb(248,204,68)" stroke="white" stroke-width="0.7"/><rect x="590" y="385" width="30" height="30" fill="rgb(130,148,133)" stroke="white" stroke-width="0.7"/><rect x="620" y="385" width="30" height="30" fill="rgb(124,145,136)" stroke="white" stroke-width="0.7"/><rect x="200" y="415" width="30" height="30" fill="rgb(141,154,127)" stroke="white" stroke-width="0.7"/><rect x="230" y="415" width="30" height="30" fill="rgb(134,151,131)" stroke="white" stroke-width="0.7"/><rect x="260" y="415" width="30" height="30" fill="rgb(174,171,110)" stroke="white" stroke-width="0.7"/><rect x="290" y="415" width="30" height="30" fill="rgb(121,144,138)" stroke="white" stroke-width="0.7"/><rect x="320" y="415" width="30" height="30" fill="rgb(118,142,140)" stroke="white" stroke-width="0.7"/><rect x="350" y="415" width="30" height="30" fill="rgb(158,163,118)" stroke="white" stroke-width="0.7"/><rect x="380" y="415" width="30" height="30" fill="rgb(162,165,116)" stroke="white" stroke-width="0.7"/><rect x="410" y="415" width="30" height="30" fill="rgb(235,202,77)" stroke="white" stroke-width="0.7"/><rect x="440" y="415" width="30" height="30" fill="rgb(194,181,99)" stroke="white" stroke-width="0.7"/><rect x="470" y="415" width="30" height="30" fill="rgb(210,35,30)" stroke="white" stroke-width="0.7"/><rect x="500" y="415" width="30" height="30" fill="rgb(229,119,49)" stroke="white" stroke-width="0.7"/><rect x="530" y="415" width="30" height="30" fill="rgb(243,181,63)" stroke="white" stroke-width="0.7"/><rect x="560" y="415" width="30" height="30" fill="rgb(172,170,111)" stroke="white" stroke-width="0.7"/><rect x="590" y="415" width="30" height="30" fill="rgb(179,173,107)" stroke="white" stroke-width="0.7"/><rect x="620" y="415" width="30" height="30" fill="rgb(188,178,102)" stroke="white" stroke-width="0.7"/><rect x="200" y="445" width="30" height="30" fill="rgb(171,169,112)" stroke="white" stroke-width="0.7"/><rect x="230" y="445" width="30" height="30" fill="rgb(124,145,137)" stroke="white" stroke-width="0.7"/><rect x="260" y="445" width="30" height="30" fill="rgb(245,191,65)" stroke="white" stroke-width="0.7"/><rect x="290" y="445" width="30" height="30" fill="rgb(214,52,34)" stroke="white" stroke-width="0.7"/><rect x="320" y="445" width="30" height="30" fill="rgb(205,187,93)" stroke="white" stroke-width="0.7"/><rect x="350" y="445" width="30" height="30" fill="rgb(215,192,88)" stroke="white" stroke-width="0.7"/><rect x="380" y="445" width="30" height="30" fill="rgb(145,156,125)" stroke="white" stroke-width="0.7"/><rect x="410" y="445" width="30" height="30" fill="rgb(162,165,116)" stroke="white" stroke-width="0.7"/><rect x="440" y="445" width="30" height="30" fill="rgb(231,200,80)" stroke="white" stroke-width="0.7"/><rect x="470" y="445" width="30" height="30" fill="rgb(242,206,73)" stroke="white" stroke-width="0.7"/><rect x="500" y="445" width="30" height="30" fill="rgb(210,35,30)" stroke="white" stroke-width="0.7"/><rect x="530" y="445" width="30" height="30" fill="rgb(230,126,50)" stroke="white" stroke-width="0.7"/><rect x="560" y="445" width="30" height="30" fill="rgb(194,181,99)" stroke="white" stroke-width="0.7"/><rect x="590" y="445" width="30" height="30" fill="rgb(146,157,125)" stroke="white" stroke-width="0.7"/><rect x="620" y="445" width="30" height="30" fill="rgb(237,155,57)" stroke="white" stroke-width="0.7"/><rect x="200" y="475" width="30" height="30" fill="rgb(202,185,95)" stroke="white" stroke-width="0.7"/><rect x="230" y="475" width="30" height="30" fill="rgb(127,147,135)" stroke="white" stroke-width="0.7"/><rect x="260" y="475" width="30" height="30" fill="rgb(209,189,91)" stroke="white" stroke-width="0.7"/><rect x="290" y="475" width="30" height="30" fill="rgb(107,137,146)" stroke="white" stroke-width="0.7"/><rect x="320" y="475" width="30" height="30" fill="rgb(212,190,89)" stroke="white" stroke-width="0.7"/><rect x="350" y="475" width="30" height="30" fill="rgb(239,164,59)" stroke="white" stroke-width="0.7"/><rect x="380" y="475" width="30" height="30" fill="rgb(242,176,62)" stroke="white" stroke-width="0.7"/><rect x="410" y="475" width="30" height="30" fill="rgb(246,195,66)" stroke="white" stroke-width="0.7"/><rect x="440" y="475" width="30" height="30" fill="rgb(195,181,99)" stroke="white" stroke-width="0.7"/><rect x="470" y="475" width="30" height="30" fill="rgb(236,202,77)" stroke="white" stroke-width="0.7"/><rect x="500" y="475" width="30" height="30" fill="rgb(223,196,84)" stroke="white" stroke-width="0.7"/><rect x="530" y="475" width="30" height="30" fill="rgb(210,35,30)" stroke="white" stroke-width="0.7"/><rect x="560" y="475" width="30" height="30" fill="rgb(233,135,53)" stroke="white" stroke-width="0.7"/><rect x="590" y="475" width="30" height="30" fill="rgb(246,194,66)" stroke="white" stroke-width="0.7"/><rect x="620" y="475" width="30" height="30" fill="rgb(241,171,61)" stroke="white" stroke-width="0.7"/><rect x="200" y="505" width="30" height="30" fill="rgb(161,164,117)" stroke="white" stroke-width="0.7"/><rect x="230" y="505" width="30" height="30" fill="rgb(141,154,128)" stroke="white" stroke-width="0.7"/><rect x="260" y="505" width="30" height="30" fill="rgb(247,200,67)" stroke="white" stroke-width="0.7"/><rect x="290" y="505" width="30" height="30" fill="rgb(241,172,61)" stroke="white" stroke-width="0.7"/><rect x="320" y="505" width="30" height="30" fill="rgb(245,190,65)" stroke="white" stroke-width="0.7"/><rect x="350" y="505" width="30" height="30" fill="rgb(246,195,66)" stroke="white" stroke-width="0.7"/><rect x="380" y="505" width="30" height="30" fill="rgb(245,189,65)" stroke="white" stroke-width="0.7"/><rect x="410" y="505" width="30" height="30" fill="rgb(246,196,66)" stroke="white" stroke-width="0.7"/><rect x="440" y="505" width="30" height="30" fill="rgb(174,171,110)" stroke="white" stroke-width="0.7"/><rect x="470" y="505" width="30" height="30" fill="rgb(246,208,71)" stroke="white" stroke-width="0.7"/><rect x="500" y="505" width="30" height="30" fill="rgb(233,201,78)" stroke="white" stroke-width="0.7"/><rect x="530" y="505" width="30" height="30" fill="rgb(195,181,99)" stroke="white" stroke-width="0.7"/><rect x="560" y="505" width="30" height="30" fill="rgb(210,35,30)" stroke="white" stroke-width="0.7"/><rect x="590" y="505" width="30" height="30" fill="rgb(194,181,99)" stroke="white" stroke-width="0.7"/><rect x="620" y="505" width="30" height="30" fill="rgb(214,52,34)" stroke="white" stroke-width="0.7"/><rect x="200" y="535" width="30" height="30" fill="rgb(146,157,125)" stroke="white" stroke-width="0.7"/><rect x="230" y="535" width="30" height="30" fill="rgb(235,202,77)" stroke="white" stroke-width="0.7"/><rect x="260" y="535" width="30" height="30" fill="rgb(242,179,62)" stroke="white" stroke-width="0.7"/><rect x="290" y="535" width="30" height="30" fill="rgb(187,178,103)" stroke="white" stroke-width="0.7"/><rect x="320" y="535" width="30" height="30" fill="rgb(243,179,63)" stroke="white" stroke-width="0.7"/><rect x="350" y="535" width="30" height="30" fill="rgb(240,169,60)" stroke="white" stroke-width="0.7"/><rect x="380" y="535" width="30" height="30" fill="rgb(241,171,61)" stroke="white" stroke-width="0.7"/><rect x="410" y="535" width="30" height="30" fill="rgb(184,176,104)" stroke="white" stroke-width="0.7"/><rect x="440" y="535" width="30" height="30" fill="rgb(162,165,116)" stroke="white" stroke-width="0.7"/><rect x="470" y="535" width="30" height="30" fill="rgb(174,171,110)" stroke="white" stroke-width="0.7"/><rect x="500" y="535" width="30" height="30" fill="rgb(181,175,106)" stroke="white" stroke-width="0.7"/><rect x="530" y="535" width="30" height="30" fill="rgb(203,186,94)" stroke="white" stroke-width="0.7"/><rect x="560" y="535" width="30" height="30" fill="rgb(238,158,58)" stroke="white" stroke-width="0.7"/><rect x="590" y="535" width="30" height="30" fill="rgb(210,35,30)" stroke="white" stroke-width="0.7"/><rect x="620" y="535" width="30" height="30" fill="rgb(228,115,48)" stroke="white" stroke-width="0.7"/><rect x="200" y="565" width="30" height="30" fill="rgb(247,199,67)" stroke="white" stroke-width="0.7"/><rect x="230" y="565" width="30" height="30" fill="rgb(191,180,101)" stroke="white" stroke-width="0.7"/><rect x="260" y="565" width="30" height="30" fill="rgb(227,198,82)" stroke="white" stroke-width="0.7"/><rect x="290" y="565" width="30" height="30" fill="rgb(248,203,68)" stroke="white" stroke-width="0.7"/><rect x="320" y="565" width="30" height="30" fill="rgb(114,140,142)" stroke="white" stroke-width="0.7"/><rect x="350" y="565" width="30" height="30" fill="rgb(232,201,79)" stroke="white" stroke-width="0.7"/><rect x="380" y="565" width="30" height="30" fill="rgb(243,181,63)" stroke="white" stroke-width="0.7"/><rect x="410" y="565" width="30" height="30" fill="rgb(247,199,67)" stroke="white" stroke-width="0.7"/><rect x="440" y="565" width="30" height="30" fill="rgb(247,200,67)" stroke="white" stroke-width="0.7"/><rect x="470" y="565" width="30" height="30" fill="rgb(214,192,88)" stroke="white" stroke-width="0.7"/><rect x="500" y="565" width="30" height="30" fill="rgb(164,166,115)" stroke="white" stroke-width="0.7"/><rect x="530" y="565" width="30" height="30" fill="rgb(240,169,60)" stroke="white" stroke-width="0.7"/><rect x="560" y="565" width="30" height="30" fill="rgb(214,52,34)" stroke="white" stroke-width="0.7"/><rect x="590" y="565" width="30" height="30" fill="rgb(231,131,51)" stroke="white" stroke-width="0.7"/><rect x="620" y="565" width="30" height="30" fill="rgb(210,35,30)" stroke="white" stroke-width="0.7"/><text x="425.0" y="650" font-family="Arial, Helvetica, sans-serif" font-size="25" font-weight="700" fill="#101828" text-anchor="middle">Electrodos</text><text x="140" y="370.0" font-family="Arial" font-size="25" font-weight="700" fill="#101828" text-anchor="middle" transform="rotate(-90,140,370.0)">Electrodos</text><rect x="690" y="445" width="34" height="3" fill="rgb(25,95,190)"/><rect x="690" y="442" width="34" height="3" fill="rgb(29,97,187)"/><rect x="690" y="439" width="34" height="3" fill="rgb(34,99,185)"/><rect x="690" y="436" width="34" height="3" fill="rgb(38,101,182)"/><rect x="690" y="433" width="34" height="3" fill="rgb(43,104,180)"/><rect x="690" y="430" width="34" height="3" fill="rgb(47,106,177)"/><rect x="690" y="427" width="34" height="3" fill="rgb(52,108,175)"/><rect x="690" y="424" width="34" height="3" fill="rgb(56,111,173)"/><rect x="690" y="421" width="34" height="3" fill="rgb(61,113,170)"/><rect x="690" y="418" width="34" height="3" fill="rgb(65,115,168)"/><rect x="690" y="415" width="34" height="3" fill="rgb(70,118,165)"/><rect x="690" y="412" width="34" height="3" fill="rgb(75,120,163)"/><rect x="690" y="409" width="34" height="3" fill="rgb(79,122,160)"/><rect x="690" y="406" width="34" height="3" fill="rgb(84,125,158)"/><rect x="690" y="403" width="34" height="3" fill="rgb(88,127,156)"/><rect x="690" y="400" width="34" height="3" fill="rgb(93,129,153)"/><rect x="690" y="397" width="34" height="3" fill="rgb(97,132,151)"/><rect x="690" y="394" width="34" height="3" fill="rgb(102,134,148)"/><rect x="690" y="391" width="34" height="3" fill="rgb(106,136,146)"/><rect x="690" y="388" width="34" height="3" fill="rgb(111,139,143)"/><rect x="690" y="385" width="34" height="3" fill="rgb(115,141,141)"/><rect x="690" y="382" width="34" height="3" fill="rgb(120,143,139)"/><rect x="690" y="379" width="34" height="3" fill="rgb(125,146,136)"/><rect x="690" y="376" width="34" height="3" fill="rgb(129,148,134)"/><rect x="690" y="373" width="34" height="3" fill="rgb(134,150,131)"/><rect x="690" y="370" width="34" height="3" fill="rgb(138,153,129)"/><rect x="690" y="367" width="34" height="3" fill="rgb(143,155,126)"/><rect x="690" y="364" width="34" height="3" fill="rgb(147,157,124)"/><rect x="690" y="361" width="34" height="3" fill="rgb(152,160,122)"/><rect x="690" y="358" width="34" height="3" fill="rgb(156,162,119)"/><rect x="690" y="355" width="34" height="3" fill="rgb(161,164,117)"/><rect x="690" y="352" width="34" height="3" fill="rgb(165,167,114)"/><rect x="690" y="349" width="34" height="3" fill="rgb(170,169,112)"/><rect x="690" y="346" width="34" height="3" fill="rgb(175,171,110)"/><rect x="690" y="343" width="34" height="3" fill="rgb(179,173,107)"/><rect x="690" y="340" width="34" height="3" fill="rgb(184,176,105)"/><rect x="690" y="337" width="34" height="3" fill="rgb(188,178,102)"/><rect x="690" y="334" width="34" height="3" fill="rgb(193,180,100)"/><rect x="690" y="331" width="34" height="3" fill="rgb(197,183,97)"/><rect x="690" y="328" width="34" height="3" fill="rgb(202,185,95)"/><rect x="690" y="325" width="34" height="3" fill="rgb(206,187,93)"/><rect x="690" y="322" width="34" height="3" fill="rgb(211,190,90)"/><rect x="690" y="319" width="34" height="3" fill="rgb(215,192,88)"/><rect x="690" y="316" width="34" height="3" fill="rgb(220,194,85)"/><rect x="690" y="313" width="34" height="3" fill="rgb(225,197,83)"/><rect x="690" y="310" width="34" height="3" fill="rgb(229,199,80)"/><rect x="690" y="307" width="34" height="3" fill="rgb(234,201,78)"/><rect x="690" y="304" width="34" height="3" fill="rgb(238,204,76)"/><rect x="690" y="301" width="34" height="3" fill="rgb(243,206,73)"/><rect x="690" y="298" width="34" height="3" fill="rgb(247,208,71)"/><rect x="690" y="295" width="34" height="3" fill="rgb(249,208,69)"/><rect x="690" y="292" width="34" height="3" fill="rgb(248,204,68)"/><rect x="690" y="289" width="34" height="3" fill="rgb(247,201,67)"/><rect x="690" y="286" width="34" height="3" fill="rgb(247,197,67)"/><rect x="690" y="283" width="34" height="3" fill="rgb(246,194,66)"/><rect x="690" y="280" width="34" height="3" fill="rgb(245,190,65)"/><rect x="690" y="277" width="34" height="3" fill="rgb(244,187,64)"/><rect x="690" y="274" width="34" height="3" fill="rgb(243,183,63)"/><rect x="690" y="271" width="34" height="3" fill="rgb(243,179,63)"/><rect x="690" y="268" width="34" height="3" fill="rgb(242,176,62)"/><rect x="690" y="265" width="34" height="3" fill="rgb(241,172,61)"/><rect x="690" y="262" width="34" height="3" fill="rgb(240,169,60)"/><rect x="690" y="259" width="34" height="3" fill="rgb(239,165,59)"/><rect x="690" y="256" width="34" height="3" fill="rgb(239,162,59)"/><rect x="690" y="253" width="34" height="3" fill="rgb(238,158,58)"/><rect x="690" y="250" width="34" height="3" fill="rgb(237,155,57)"/><rect x="690" y="247" width="34" height="3" fill="rgb(236,151,56)"/><rect x="690" y="244" width="34" height="3" fill="rgb(235,148,55)"/><rect x="690" y="241" width="34" height="3" fill="rgb(235,144,55)"/><rect x="690" y="238" width="34" height="3" fill="rgb(234,141,54)"/><rect x="690" y="235" width="34" height="3" fill="rgb(233,137,53)"/><rect x="690" y="232" width="34" height="3" fill="rgb(232,133,52)"/><rect x="690" y="229" width="34" height="3" fill="rgb(231,130,51)"/><rect x="690" y="226" width="34" height="3" fill="rgb(231,126,51)"/><rect x="690" y="223" width="34" height="3" fill="rgb(230,123,50)"/><rect x="690" y="220" width="34" height="3" fill="rgb(229,119,49)"/><rect x="690" y="217" width="34" height="3" fill="rgb(228,116,48)"/><rect x="690" y="214" width="34" height="3" fill="rgb(227,112,47)"/><rect x="690" y="211" width="34" height="3" fill="rgb(226,109,46)"/><rect x="690" y="208" width="34" height="3" fill="rgb(226,105,46)"/><rect x="690" y="205" width="34" height="3" fill="rgb(225,102,45)"/><rect x="690" y="202" width="34" height="3" fill="rgb(224,98,44)"/><rect x="690" y="199" width="34" height="3" fill="rgb(223,95,43)"/><rect x="690" y="196" width="34" height="3" fill="rgb(222,91,42)"/><rect x="690" y="193" width="34" height="3" fill="rgb(222,88,42)"/><rect x="690" y="190" width="34" height="3" fill="rgb(221,84,41)"/><rect x="690" y="187" width="34" height="3" fill="rgb(220,80,40)"/><rect x="690" y="184" width="34" height="3" fill="rgb(219,77,39)"/><rect x="690" y="181" width="34" height="3" fill="rgb(218,73,38)"/><rect x="690" y="178" width="34" height="3" fill="rgb(218,70,38)"/><rect x="690" y="175" width="34" height="3" fill="rgb(217,66,37)"/><rect x="690" y="172" width="34" height="3" fill="rgb(216,63,36)"/><rect x="690" y="169" width="34" height="3" fill="rgb(215,59,35)"/><rect x="690" y="166" width="34" height="3" fill="rgb(214,56,34)"/><rect x="690" y="163" width="34" height="3" fill="rgb(214,52,34)"/><rect x="690" y="160" width="34" height="3" fill="rgb(213,49,33)"/><rect x="690" y="157" width="34" height="3" fill="rgb(212,45,32)"/><rect x="690" y="154" width="34" height="3" fill="rgb(211,42,31)"/><rect x="690" y="151" width="34" height="3" fill="rgb(210,38,30)"/><rect x="690" y="148" width="34" height="3" fill="rgb(210,35,30)"/><text x="745" y="455" font-family="Arial, Helvetica, sans-serif" font-size="20" font-weight="700" fill="#101828" text-anchor="start">0</text><text x="745" y="155" font-family="Arial, Helvetica, sans-serif" font-size="20" font-weight="700" fill="#101828" text-anchor="start">1</text><text x="925" y="260" font-family="Arial, Helvetica, sans-serif" font-size="28" font-weight="700" fill="#0b1d57" text-anchor="middle">Cada celda resume la fuerza</text><text x="925" y="300" font-family="Arial, Helvetica, sans-serif" font-size="28" font-weight="700" fill="#0b1d57" text-anchor="middle">de conexión entre dos canales</text><text x="925" y="390" font-family="Arial, Helvetica, sans-serif" font-size="27" font-weight="700" fill="#101828" text-anchor="middle">Bandas típicas:</text><text x="925" y="430" font-family="Arial, Helvetica, sans-serif" font-size="27" font-weight="700" fill="#5f6b7a" text-anchor="middle">alfa, beta, theta...</text>
</svg>