<svg xmlns="http://www.w3.org/2000/svg" width="1200" height="780" viewBox="0 0 1200 780" role="img" aria-labelledby="title desc">
<title>Grafo de conectividad EEG</title>
<desc>Original vector illustration for LaTeX documents about wPLI functional connectivity in EEG.</desc>
<defs>
  <marker id="arrow" markerWidth="12" markerHeight="12" refX="10" refY="6" orient="auto">
    <path d="M2,2 L10,6 L2,10 Z" fill="#5f6b7a"/>
  </marker>
  <marker id="arrowBlue" markerWidth="12" markerHeight="12" refX="10" refY="6" orient="auto">
    <path d="M2,2 L10,6 L2,10 Z" fill="#1f5cc4"/>
  </marker>
  <marker id="arrowRed" markerWidth="12" markerHeight="12" refX="10" refY="6" orient="auto">
    <path d="M2,2 L10,6 L2,10 Z" fill="#cc1f1a"/>
  </marker>
  <filter id="shadow" x="-20%" y="-20%" width="140%" height="140%">
    <feDropShadow dx="0" dy="5" stdDeviation="8" flood-color="#000" flood-opacity="0.12"/>
  </filter>
  <linearGradient id="bg" x1="0" y1="0" x2="1" y2="1">
    <stop offset="0%" stop-color="#ffffff"/>
    <stop offset="100%" stop-color="#eef5ff"/>
  </linearGradient>
</defs>
<rect width="100%" height="100%" fill="url(#bg)"/>
<rect x="55" y="55" width="1090" height="650" rx="24" fill="white" stroke="#1b7a35" stroke-width="3" filter="url(#shadow)"/><rect x="55" y="55" width="1090" height="64" rx="24" fill="#1b7a35"/><text x="600.0" y="98" font-family="Arial, Helvetica, sans-serif" font-size="25" font-weight="700" fill="white" text-anchor="middle">Grafo de conectividad EEG</text><circle cx="600" cy="365" r="235" fill="white" stroke="#101828" stroke-width="5"/><path d="M365,360 C325,355 325,410 365,420" fill="none" stroke="#101828" stroke-width="4"/><path d="M835,360 C875,355 875,410 835,420" fill="none" stroke="#101828" stroke-width="4"/><line x1="600.0" y1="160.0" x2="767.4" y2="391.0" stroke="#cc1f1a" stroke-width="8.3" opacity="0.78"/><line x1="735.0" y1="208.0" x2="671.8" y2="557.6" stroke="#f4b000" stroke-width="6.2" opacity="0.78"/><line x1="806.8" y1="329.4" x2="418.1" y2="467.5" stroke="#cc1f1a" stroke-width="8.0" opacity="0.78"/><line x1="781.9" y1="467.5" x2="490.7" y2="479.9" stroke="#f4b000" stroke-width="5.9" opacity="0.78"/><line x1="709.3" y1="479.9" x2="452.8" y2="290.0" stroke="#d64a1b" stroke-width="6.9" opacity="0.78"/><line x1="528.2" y1="557.6" x2="465.0" y2="208.0" stroke="#cc1f1a" stroke-width="8.6" opacity="0.78"/><line x1="658.1" y1="224.0" x2="432.6" y2="391.0" stroke="#f4b000" stroke-width="5.2" opacity="0.78"/><line x1="747.2" y1="290.0" x2="393.2" y2="329.4" stroke="#d64a1b" stroke-width="6.5" opacity="0.78"/><line x1="767.4" y1="391.0" x2="541.9" y2="224.0" stroke="#d64a1b" stroke-width="7.2" opacity="0.78"/><circle cx="600.0" cy="160.0" r="14" fill="#e5e7eb" stroke="#101828" stroke-width="2"/><circle cx="658.1" cy="224.0" r="14" fill="#e5e7eb" stroke="#101828" stroke-width="2"/><circle cx="735.0" cy="208.0" r="14" fill="#e5e7eb" stroke="#101828" stroke-width="2"/><circle cx="747.2" cy="290.0" r="14" fill="#e5e7eb" stroke="#101828" stroke-width="2"/><circle cx="806.8" cy="329.4" r="14" fill="#e5e7eb" stroke="#101828" stroke-width="2"/><circle cx="767.4" cy="391.0" r="14" fill="#e5e7eb" stroke="#101828" stroke-width="2"/><circle cx="781.9" cy="467.5" r="14" fill="#e5e7eb" stroke="#101828" stroke-width="2"/><circle cx="709.3" cy="479.9" r="14" fill="#e5e7eb" stroke="#101828" stroke-width="2"/><circle cx="671.8" cy="557.6" r="14" fill="#e5e7eb" stroke="#101828" stroke-width="2"/><circle cx="600.0" cy="515.0" r="14" fill="#e5e7eb" stroke="#101828" stroke-width="2"/><circle cx="528.2" cy="557.6" r="14" fill="#e5e7eb" stroke="#101828" stroke-width="2"/><circle cx="490.7" cy="479.9" r="14" fill="#e5e7eb" stroke="#101828" stroke-width="2"/><circle cx="418.1" cy="467.5" r="14" fill="#e5e7eb" stroke="#101828" stroke-width="2"/><circle cx="432.6" cy="391.0" r="14" fill="#e5e7eb" stroke="#101828" stroke-width="2"/><circle cx="393.2" cy="329.4" r="14" fill="#e5e7eb" stroke="#101828" stroke-width="2"/><circle cx="452.8" cy="290.0" r="14" fill="#e5e7eb" stroke="#101828" stroke-width="2"/><circle cx="465.0" cy="208.0" r="14" fill="#e5e7eb" stroke="#101828" stroke-width="2"/><circle cx="541.9" cy="224.0" r="14" fill="#e5e7eb" stroke="#101828" stroke-width="2"/><line x1="350" y1="650" x2="850" y2="650" stroke="#cc1f1a" stroke-width="10" marker-end="url(#arrowRed)"/><text x="350" y="690" font-family="Arial, Helvetica, sans-serif" font-size="22" font-weight="700" fill="#5f6b7a" text-anchor="middle">baja</text><text x="850" y="690" font-family="Arial, Helvetica, sans-serif" font-size="22" font-weight="700" fill="#cc1f1a" text-anchor="middle">alta</text><text x="600" y="620" font-family="Arial, Helvetica, sans-serif" font-size="27" font-weight="700" fill="#101828" text-anchor="middle">Fuerza de conexión wPLI</text>
</svg>