<svg xmlns="http://www.w3.org/2000/svg" width="1200" height="780" viewBox="0 0 1200 780" role="img" aria-labelledby="title desc">
<title>Robustez wPLI</title>
<desc>Original vector illustration for LaTeX documents about wPLI functional connectivity in EEG.</desc>
<defs>
  <marker id="arrow" markerWidth="12" markerHeight="12" refX="10" refY="6" orient="auto">
    <path d="M2,2 L10,6 L2,10 Z" fill="#5f6b7a"/>
  </marker>
  <marker id="arrowBlue" markerWidth="12" markerHeight="12" refX="10" refY="6" orient="auto">
    <path d="M2,2 L10,6 L2,10 Z" fill="#1f5cc4"/>
  </marker>
  <marker id="arrowRed" markerWidth="12" markerHeight="12" refX="10" refY="6" orient="auto">
    <path d="M2,2 L10,6 L2,10 Z" fill="#cc1f1a"/>
  </marker>
  <filter id="shadow" x="-20%" y="-20%" width="140%" height="140%">
    <feDropShadow dx="0" dy="5" stdDeviation="8" flood-color="#000" flood-opacity="0.12"/>
  </filter>
  <linearGradient id="bg" x1="0" y1="0" x2="1" y2="1">
    <stop offset="0%" stop-color="#ffffff"/>
    <stop offset="100%" stop-color="#eef5ff"/>
  </linearGradient>
</defs>
<rect width="100%" height="100%" fill="url(#bg)"/>
<rect x="55" y="55" width="1090" height="650" rx="24" fill="white" stroke="#1f5cc4" stroke-width="3" filter="url(#shadow)"/><rect x="55" y="55" width="1090" height="64" rx="24" fill="#1f5cc4"/><text x="600.0" y="98" font-family="Arial, Helvetica, sans-serif" font-size="25" font-weight="700" fill="white" text-anchor="middle">Robustez frente a ruido y mezclas</text><rect x="150" y="155" width="850" height="430" rx="20" fill="white" stroke="#d8e2ef" stroke-width="3"/><line x1="220" y1="520" x2="940" y2="520" stroke="#101828" stroke-width="4" marker-end="url(#arrow)"/><line x1="220" y1="520" x2="220" y2="205" stroke="#101828" stroke-width="4" marker-end="url(#arrow)"/><text x="580" y="570" font-family="Arial, Helvetica, sans-serif" font-size="25" font-weight="700" fill="#101828" text-anchor="middle">Amplitud de ruido / mezcla</text><text x="170" y="370" font-family="Arial" font-size="25" font-weight="700" fill="#101828" text-anchor="middle" transform="rotate(-90,170,370)">Valor estimado</text><path d="M 220.0,240.2 L 224.4,240.7 L 228.8,241.2 L 233.2,241.8 L 237.6,242.3 L 242.0,243.0 L 246.4,243.6 L 250.8,244.2 L 255.2,244.9 L 259.6,245.7 L 264.0,246.4 L 268.4,247.2 L 272.8,248.0 L 277.2,248.9 L 281.6,249.8 L 286.0,250.7 L 290.4,251.7 L 294.8,252.7 L 299.2,253.8 L 303.6,254.9 L 308.1,256.1 L 312.5,257.3 L 316.9,258.5 L 321.3,259.8 L 325.7,261.2 L 330.1,262.6 L 334.5,264.1 L 338.9,265.6 L 343.3,267.2 L 347.7,268.8 L 352.1,270.5 L 356.5,272.2 L 360.9,274.0 L 365.3,275.9 L 369.7,277.8 L 374.1,279.8 L 378.5,281.9 L 382.9,284.0 L 387.3,286.2 L 391.7,288.5 L 396.1,290.8 L 400.5,293.1 L 404.9,295.6 L 409.3,298.1 L 413.7,300.6 L 418.1,303.3 L 422.5,305.9 L 426.9,308.7 L 431.3,311.4 L 435.7,314.3 L 440.1,317.2 L 444.5,320.1 L 448.9,323.1 L 453.3,326.1 L 457.7,329.2 L 462.1,332.3 L 466.5,335.4 L 470.9,338.6 L 475.3,341.8 L 479.7,345.0 L 484.2,348.3 L 488.6,351.5 L 493.0,354.8 L 497.4,358.0 L 501.8,361.3 L 506.2,364.6 L 510.6,367.8 L 515.0,371.1 L 519.4,374.3 L 523.8,377.6 L 528.2,380.8 L 532.6,383.9 L 537.0,387.1 L 541.4,390.2 L 545.8,393.3 L 550.2,396.3 L 554.6,399.3 L 559.0,402.2 L 563.4,405.1 L 567.8,408.0 L 572.2,410.8 L 576.6,413.5 L 581.0,416.2 L 585.4,418.8 L 589.8,421.4 L 594.2,423.9 L 598.6,426.4 L 603.0,428.8 L 607.4,431.1 L 611.8,433.3 L 616.2,435.5 L 620.6,437.7 L 625.0,439.8 L 629.4,441.8 L 633.8,443.7 L 638.2,445.6 L 642.6,447.4 L 647.0,449.2 L 651.4,450.9 L 655.8,452.5 L 660.3,454.1 L 664.7,455.6 L 669.1,457.1 L 673.5,458.5 L 677.9,459.9 L 682.3,461.2 L 686.7,462.5 L 691.1,463.7 L 695.5,464.8 L 699.9,466.0 L 704.3,467.0 L 708.7,468.1 L 713.1,469.1 L 717.5,470.0 L 721.9,470.9 L 726.3,471.8 L 730.7,472.6 L 735.1,473.4 L 739.5,474.2 L 743.9,474.9 L 748.3,475.6 L 752.7,476.3 L 757.1,476.9 L 761.5,477.5 L 765.9,478.1 L 770.3,478.7 L 774.7,479.2 L 779.1,479.7 L 783.5,480.2 L 787.9,480.7 L 792.3,481.1 L 796.7,481.5 L 801.1,481.9 L 805.5,482.3 L 809.9,482.7 L 814.3,483.0 L 818.7,483.4 L 823.1,483.7 L 827.5,484.0 L 831.9,484.3 L 836.4,484.6 L 840.8,484.8 L 845.2,485.1 L 849.6,485.3 L 854.0,485.5 L 858.4,485.7 L 862.8,485.9 L 867.2,486.1 L 871.6,486.3 L 876.0,486.5 L 880.4,486.7 L 884.8,486.8 L 889.2,487.0 L 893.6,487.1 L 898.0,487.3 L 902.4,487.4 L 906.8,487.5 L 911.2,487.7 L 915.6,487.8 L 920.0,487.9" fill="none" stroke="#d64a1b" stroke-width="5"/><path d="M 220.0,236.6 L 224.4,237.0 L 228.8,237.5 L 233.2,237.9 L 237.6,238.4 L 242.0,238.9 L 246.4,239.5 L 250.8,240.0 L 255.2,240.6 L 259.6,241.2 L 264.0,241.8 L 268.4,242.4 L 272.8,243.1 L 277.2,243.7 L 281.6,244.5 L 286.0,245.2 L 290.4,246.0 L 294.8,246.8 L 299.2,247.6 L 303.6,248.4 L 308.1,249.3 L 312.5,250.3 L 316.9,251.2 L 321.3,252.2 L 325.7,253.3 L 330.1,254.3 L 334.5,255.5 L 338.9,256.6 L 343.3,257.8 L 347.7,259.1 L 352.1,260.4 L 356.5,261.7 L 360.9,263.1 L 365.3,264.6 L 369.7,266.1 L 374.1,267.6 L 378.5,269.2 L 382.9,270.9 L 387.3,272.6 L 391.7,274.4 L 396.1,276.2 L 400.5,278.1 L 404.9,280.0 L 409.3,282.0 L 413.7,284.1 L 418.1,286.2 L 422.5,288.4 L 426.9,290.7 L 431.3,293.0 L 435.7,295.4 L 440.1,297.8 L 444.5,300.3 L 448.9,302.9 L 453.3,305.5 L 457.7,308.2 L 462.1,310.9 L 466.5,313.7 L 470.9,316.6 L 475.3,319.4 L 479.7,322.4 L 484.2,325.4 L 488.6,328.4 L 493.0,331.5 L 497.4,334.6 L 501.8,337.7 L 506.2,340.9 L 510.6,344.1 L 515.0,347.3 L 519.4,350.6 L 523.8,353.9 L 528.2,357.1 L 532.6,360.4 L 537.0,363.7 L 541.4,367.0 L 545.8,370.3 L 550.2,373.6 L 554.6,376.8 L 559.0,380.1 L 563.4,383.3 L 567.8,386.5 L 572.2,389.7 L 576.6,392.9 L 581.0,396.0 L 585.4,399.1 L 589.8,402.1 L 594.2,405.1 L 598.6,408.0 L 603.0,410.9 L 607.4,413.7 L 611.8,416.5 L 616.2,419.3 L 620.6,421.9 L 625.0,424.5 L 629.4,427.1 L 633.8,429.6 L 638.2,432.0 L 642.6,434.4 L 647.0,436.7 L 651.4,438.9 L 655.8,441.0 L 660.3,443.1 L 664.7,445.2 L 669.1,447.1 L 673.5,449.1 L 677.9,450.9 L 682.3,452.7 L 686.7,454.4 L 691.1,456.0 L 695.5,457.6 L 699.9,459.2 L 704.3,460.6 L 708.7,462.1 L 713.1,463.4 L 717.5,464.7 L 721.9,466.0 L 726.3,467.2 L 730.7,468.3 L 735.1,469.4 L 739.5,470.5 L 743.9,471.5 L 748.3,472.5 L 752.7,473.4 L 757.1,474.3 L 761.5,475.1 L 765.9,475.9 L 770.3,476.6 L 774.7,477.4 L 779.1,478.0 L 783.5,478.7 L 787.9,479.3 L 792.3,479.9 L 796.7,480.5 L 801.1,481.0 L 805.5,481.5 L 809.9,481.9 L 814.3,482.4 L 818.7,482.8 L 823.1,483.2 L 827.5,483.6 L 831.9,483.9 L 836.4,484.3 L 840.8,484.6 L 845.2,484.8 L 849.6,485.1 L 854.0,485.4 L 858.4,485.6 L 862.8,485.8 L 867.2,486.0 L 871.6,486.2 L 876.0,486.4 L 880.4,486.6 L 884.8,486.7 L 889.2,486.8 L 893.6,487.0 L 898.0,487.1 L 902.4,487.2 L 906.8,487.3 L 911.2,487.3 L 915.6,487.4 L 920.0,487.5" fill="none" stroke="#1f5cc4" stroke-width="5"/><path d="M 220.0,234.2 L 224.4,234.7 L 228.8,235.1 L 233.2,235.6 L 237.6,236.0 L 242.0,236.5 L 246.4,237.0 L 250.8,237.5 L 255.2,238.0 L 259.6,238.5 L 264.0,239.0 L 268.4,239.6 L 272.8,240.2 L 277.2,240.8 L 281.6,241.4 L 286.0,242.0 L 290.4,242.6 L 294.8,243.3 L 299.2,244.0 L 303.6,244.7 L 308.1,245.4 L 312.5,246.2 L 316.9,246.9 L 321.3,247.8 L 325.7,248.6 L 330.1,249.4 L 334.5,250.3 L 338.9,251.2 L 343.3,252.2 L 347.7,253.2 L 352.1,254.2 L 356.5,255.2 L 360.9,256.3 L 365.3,257.4 L 369.7,258.6 L 374.1,259.8 L 378.5,261.0 L 382.9,262.3 L 387.3,263.6 L 391.7,265.0 L 396.1,266.4 L 400.5,267.9 L 404.9,269.4 L 409.3,270.9 L 413.7,272.5 L 418.1,274.2 L 422.5,275.9 L 426.9,277.7 L 431.3,279.5 L 435.7,281.4 L 440.1,283.4 L 444.5,285.4 L 448.9,287.4 L 453.3,289.5 L 457.7,291.7 L 462.1,294.0 L 466.5,296.3 L 470.9,298.6 L 475.3,301.0 L 479.7,303.5 L 484.2,306.0 L 488.6,308.6 L 493.0,311.3 L 497.4,314.0 L 501.8,316.7 L 506.2,319.6 L 510.6,322.4 L 515.0,325.3 L 519.4,328.3 L 523.8,331.3 L 528.2,334.3 L 532.6,337.4 L 537.0,340.5 L 541.4,343.7 L 545.8,346.9 L 550.2,350.1 L 554.6,353.3 L 559.0,356.6 L 563.4,359.8 L 567.8,363.1 L 572.2,366.4 L 576.6,369.6 L 581.0,372.9 L 585.4,376.2 L 589.8,379.5 L 594.2,382.7 L 598.6,385.9 L 603.0,389.1 L 607.4,392.3 L 611.8,395.5 L 616.2,398.6 L 620.6,401.7 L 625.0,404.7 L 629.4,407.7 L 633.8,410.6 L 638.2,413.5 L 642.6,416.4 L 647.0,419.2 L 651.4,421.9 L 655.8,424.6 L 660.3,427.2 L 664.7,429.8 L 669.1,432.3 L 673.5,434.7 L 677.9,437.0 L 682.3,439.3 L 686.7,441.6 L 691.1,443.7 L 695.5,445.8 L 699.9,447.9 L 704.3,449.8 L 708.7,451.7 L 713.1,453.6 L 717.5,455.3 L 721.9,457.0 L 726.3,458.7 L 730.7,460.2 L 735.1,461.7 L 739.5,463.2 L 743.9,464.6 L 748.3,465.9 L 752.7,467.2 L 757.1,468.4 L 761.5,469.6 L 765.9,470.7 L 770.3,471.8 L 774.7,472.8 L 779.1,473.7 L 783.5,474.6 L 787.9,475.5 L 792.3,476.3 L 796.7,477.1 L 801.1,477.8 L 805.5,478.5 L 809.9,479.2 L 814.3,479.8 L 818.7,480.4 L 823.1,480.9 L 827.5,481.5 L 831.9,481.9 L 836.4,482.4 L 840.8,482.8 L 845.2,483.2 L 849.6,483.6 L 854.0,483.9 L 858.4,484.2 L 862.8,484.5 L 867.2,484.8 L 871.6,485.0 L 876.0,485.2 L 880.4,485.4 L 884.8,485.6 L 889.2,485.8 L 893.6,485.9 L 898.0,486.0 L 902.4,486.1 L 906.8,486.2 L 911.2,486.3 L 915.6,486.4 L 920.0,486.4" fill="none" stroke="#1b7a35" stroke-width="5"/><path d="M 220.0,232.7 L 224.4,233.2 L 228.8,233.6 L 233.2,234.1 L 237.6,234.6 L 242.0,235.1 L 246.4,235.6 L 250.8,236.1 L 255.2,236.6 L 259.6,237.1 L 264.0,237.6 L 268.4,238.2 L 272.8,238.7 L 277.2,239.3 L 281.6,239.8 L 286.0,240.4 L 290.4,241.0 L 294.8,241.6 L 299.2,242.2 L 303.6,242.9 L 308.1,243.5 L 312.5,244.2 L 316.9,244.9 L 321.3,245.6 L 325.7,246.3 L 330.1,247.0 L 334.5,247.7 L 338.9,248.5 L 343.3,249.3 L 347.7,250.1 L 352.1,250.9 L 356.5,251.8 L 360.9,252.6 L 365.3,253.5 L 369.7,254.5 L 374.1,255.4 L 378.5,256.4 L 382.9,257.4 L 387.3,258.4 L 391.7,259.5 L 396.1,260.6 L 400.5,261.8 L 404.9,262.9 L 409.3,264.1 L 413.7,265.4 L 418.1,266.7 L 422.5,268.0 L 426.9,269.4 L 431.3,270.8 L 435.7,272.2 L 440.1,273.7 L 444.5,275.3 L 448.9,276.9 L 453.3,278.5 L 457.7,280.2 L 462.1,282.0 L 466.5,283.8 L 470.9,285.6 L 475.3,287.5 L 479.7,289.5 L 484.2,291.5 L 488.6,293.6 L 493.0,295.7 L 497.4,297.9 L 501.8,300.2 L 506.2,302.5 L 510.6,304.8 L 515.0,307.3 L 519.4,309.7 L 523.8,312.3 L 528.2,314.9 L 532.6,317.5 L 537.0,320.2 L 541.4,322.9 L 545.8,325.7 L 550.2,328.6 L 554.6,331.5 L 559.0,334.4 L 563.4,337.4 L 567.8,340.4 L 572.2,343.5 L 576.6,346.6 L 581.0,349.7 L 585.4,352.9 L 589.8,356.0 L 594.2,359.2 L 598.6,362.4 L 603.0,365.6 L 607.4,368.9 L 611.8,372.1 L 616.2,375.3 L 620.6,378.6 L 625.0,381.8 L 629.4,385.0 L 633.8,388.2 L 638.2,391.3 L 642.6,394.5 L 647.0,397.6 L 651.4,400.7 L 655.8,403.7 L 660.3,406.7 L 664.7,409.7 L 669.1,412.6 L 673.5,415.5 L 677.9,418.3 L 682.3,421.1 L 686.7,423.8 L 691.1,426.5 L 695.5,429.1 L 699.9,431.6 L 704.3,434.1 L 708.7,436.5 L 713.1,438.8 L 717.5,441.1 L 721.9,443.3 L 726.3,445.4 L 730.7,447.5 L 735.1,449.5 L 739.5,451.4 L 743.9,453.3 L 748.3,455.1 L 752.7,456.8 L 757.1,458.5 L 761.5,460.1 L 765.9,461.6 L 770.3,463.1 L 774.7,464.5 L 779.1,465.8 L 783.5,467.1 L 787.9,468.3 L 792.3,469.5 L 796.7,470.6 L 801.1,471.6 L 805.5,472.6 L 809.9,473.6 L 814.3,474.5 L 818.7,475.3 L 823.1,476.1 L 827.5,476.9 L 831.9,477.6 L 836.4,478.3 L 840.8,478.9 L 845.2,479.5 L 849.6,480.0 L 854.0,480.5 L 858.4,481.0 L 862.8,481.4 L 867.2,481.8 L 871.6,482.2 L 876.0,482.5 L 880.4,482.8 L 884.8,483.1 L 889.2,483.3 L 893.6,483.6 L 898.0,483.7 L 902.4,483.9 L 906.8,484.1 L 911.2,484.2 L 915.6,484.3 L 920.0,484.4" fill="none" stroke="#6a2dbd" stroke-width="5"/><line x1="760" y1="245" x2="815" y2="245" stroke="#d64a1b" stroke-width="6"/><text x="835" y="253" font-family="Arial, Helvetica, sans-serif" font-size="24" font-weight="700" fill="#101828" text-anchor="start">Coherencia</text><line x1="760" y1="290" x2="815" y2="290" stroke="#1f5cc4" stroke-width="6"/><text x="835" y="298" font-family="Arial, Helvetica, sans-serif" font-size="24" font-weight="700" fill="#101828" text-anchor="start">PLV</text><line x1="760" y1="335" x2="815" y2="335" stroke="#1b7a35" stroke-width="6"/><text x="835" y="343" font-family="Arial, Helvetica, sans-serif" font-size="24" font-weight="700" fill="#101828" text-anchor="start">PLI</text><line x1="760" y1="380" x2="815" y2="380" stroke="#6a2dbd" stroke-width="6"/><text x="835" y="388" font-family="Arial, Helvetica, sans-serif" font-size="24" font-weight="700" fill="#101828" text-anchor="start">wPLI</text><text x="600" y="655" font-family="Arial, Helvetica, sans-serif" font-size="27" font-weight="700" fill="#0b1d57" text-anchor="middle">wPLI tiende a conservar mejor la señal de desfase consistente que métricas más sensibles a volumen</text>
</svg>